<?xml version="1.0" encoding="UTF-8" standalone="no"?>
<!DOCTYPE svg PUBLIC "-//W3C//DTD SVG 1.1//EN" "http://www.w3.org/Graphics/SVG/1.1/DTD/svg11.dtd">
<svg xmlns="http://www.w3.org/2000/svg" version="1.1" viewBox="152 144 201 203" width="201pt" height="203pt">
<defs>
  <mask id="squiggle-mask">
    <path fill="white" d="M 298.69 152.33 C 302.28 156.01 300.76 162.12 296.21 164.16 C 293.52 165.49 291.31 164.23 288.70 163.45 C 285.43 167.08 282.09 170.65 278.77 174.23 C 285.87 174.18 292.97 174.22 300.07 174.21 C 301.70 171.06 302.93 168.09 306.99 167.94 C 311.43 167.39 314.55 170.88 315.08 174.99 C 314.80 179.28 311.44 182.87 306.98 182.56 C 304.00 182.45 302.42 180.02 300.50 178.11 C 292.01 178.06 283.52 178.08 275.03 178.10 C 271.65 181.78 268.33 185.53 264.93 189.19 C 270.69 189.14 276.46 189.20 282.22 189.09 C 283.70 186.74 284.57 184.39 287.47 183.55 C 291.91 182.01 296.52 185.42 296.70 190.04 C 296.85 194.56 293.05 198.17 288.51 197.50 C 285.55 197.08 284.27 195.01 282.44 192.95 C 276.62 192.92 270.80 192.87 264.99 192.89 C 263.48 193.06 261.99 192.63 260.93 193.92 C 255.55 200.04 252.49 208.14 247.38 214.41 C 244.31 218.06 239.20 219.47 234.89 217.12 C 230.71 215.11 229.34 210.34 227.61 206.41 C 226.02 202.79 224.46 198.19 220.85 196.12 C 217.20 194.03 212.94 195.14 210.45 198.43 C 205.17 204.84 201.66 212.57 193.01 215.09 C 186.36 216.37 179.22 215.54 172.46 215.63 C 172.54 214.37 172.62 213.11 172.71 211.85 C 177.47 211.72 182.25 211.86 187.01 211.79 C 190.06 211.72 193.00 211.29 195.59 209.55 C 201.81 205.50 204.10 198.82 209.06 194.11 C 213.40 189.96 220.65 189.93 225.02 194.04 C 229.88 198.26 231.04 206.36 234.53 211.57 C 236.40 214.33 240.25 214.61 242.89 212.87 C 244.83 211.62 246.21 209.32 247.41 207.40 C 250.97 201.31 254.30 195.35 258.88 189.90 C 267.82 179.77 277.19 170.06 286.35 160.13 C 286.50 157.27 285.96 154.44 288.32 152.32 C 291.49 149.34 295.55 149.24 298.69 152.33 Z" />
    <circle cx="292.77" cy="157.21" r="5.9" fill="white" />
    <circle cx="308.13" cy="175.73" r="5.9" fill="white" />
    <circle cx="289.30" cy="190.97" r="5.9" fill="white" />
    <circle cx="292.77" cy="157.21" r="3.1" fill="black" />
    <circle cx="308.13" cy="175.73" r="3.1" fill="black" />
    <circle cx="289.30" cy="190.97" r="3.1" fill="black" />
  </mask>
</defs>
<rect x="152" y="144" width="201" height="203" fill="#015393" mask="url(#squiggle-mask)" />
<path d="M 194.02 163.08 C 197.65 162.73 201.35 162.95 205.00 162.92 C 224.33 162.92 243.67 162.94 263.00 162.92 C 267.21 162.79 271.36 162.88 275.53 163.48 C 271.67 168.53 267.16 173.16 262.99 178.01 C 261.44 179.70 259.89 181.79 257.90 182.97 C 255.98 183.35 253.95 183.26 252.00 183.29 C 240.33 183.19 228.66 183.30 217.00 183.21 C 215.18 183.37 212.77 182.88 211.47 184.41 C 208.12 187.74 204.98 191.32 201.83 194.85 C 198.78 198.29 196.18 203.03 192.25 205.39 C 189.87 206.87 187.26 206.89 184.56 207.28 C 186.39 195.60 189.37 184.09 191.59 172.48 C 192.35 169.40 192.54 165.89 194.02 163.08 Z" fill="#015393" />
<path d="M 340.98 209.80 C 338.03 212.86 334.92 215.74 331.75 218.57 C 328.08 215.48 324.69 212.51 319.97 211.10 C 312.40 208.33 303.56 210.20 297.68 215.69 C 292.86 220.06 290.28 226.56 289.94 232.98 C 289.94 240.18 293.19 247.61 299.02 251.98 C 304.56 256.31 312.57 257.15 319.22 255.43 C 323.93 254.27 327.56 251.59 331.26 248.60 C 334.34 251.41 337.46 254.21 340.41 257.16 C 337.16 261.46 333.17 264.97 328.27 267.26 C 314.14 273.83 295.84 270.25 285.33 258.66 C 274.73 246.95 273.18 227.77 281.27 214.30 C 286.25 206.23 294.27 199.88 303.53 197.53 C 317.01 194.04 333.03 197.61 340.98 209.80 Z" fill="#015393" />
<path d="M 223.15 207.90 C 226.79 213.54 227.92 220.78 231.64 226.37 C 234.61 230.14 239.75 230.17 243.56 227.63 C 249.07 223.87 251.22 215.99 257.01 212.04 C 261.82 208.36 269.33 208.89 275.05 209.35 C 275.29 210.48 275.50 211.61 275.67 212.75 C 270.93 213.10 264.86 212.26 260.66 214.64 C 255.69 217.33 253.19 223.41 249.60 227.58 C 246.70 231.08 242.59 233.45 238.00 233.64 C 233.96 233.69 230.02 231.55 227.94 228.07 C 224.70 222.68 223.27 216.25 220.22 210.77 C 218.94 208.64 217.50 207.92 215.01 208.10 C 212.73 208.04 211.17 210.31 209.82 211.85 C 207.08 215.54 203.57 219.37 202.79 223.98 C 201.42 230.61 200.07 237.25 198.78 243.89 C 220.40 243.91 242.01 243.86 263.63 243.92 C 262.44 251.16 259.57 258.18 253.24 262.36 C 249.75 264.69 246.04 264.70 242.00 264.67 C 218.60 264.51 195.17 264.83 171.77 264.50 C 174.78 250.00 178.39 235.60 181.61 221.14 C 185.06 221.06 188.58 221.23 192.02 220.86 C 196.56 220.22 200.29 217.60 203.10 214.07 C 205.61 211.19 207.76 207.05 211.03 205.06 C 215.12 202.60 220.54 203.95 223.15 207.90 Z" fill="#015393" />
<path d="M 313.70 215.84 C 313.89 217.94 314.00 220.03 313.78 222.14 C 313.05 222.23 312.34 222.04 311.65 221.56 C 311.34 218.74 310.78 217.19 313.70 215.84 Z" fill="#015393" />
<path d="M 302.07 220.61 C 304.70 222.38 305.49 223.18 305.31 226.42 C 303.51 225.13 301.84 223.72 300.42 222.01 L 302.07 220.61 Z" fill="#015393" />
<path d="M 325.48 221.93 C 323.66 224.12 322.47 225.97 319.30 225.37 C 320.63 224.10 323.67 218.50 325.48 221.93 Z" fill="#015393" />
<path fill-rule="evenodd" d="M 309.44 224.46 C 315.48 222.04 322.66 227.51 321.89 233.98 C 321.40 236.96 319.52 238.67 317.58 240.76 C 317.55 242.25 317.53 243.74 317.50 245.24 C 314.31 245.27 311.11 245.25 307.91 245.26 C 307.86 243.88 307.81 242.50 307.76 241.13 C 305.92 238.97 303.52 236.99 303.32 233.97 C 302.78 229.61 305.48 225.99 309.44 224.46 Z M 311.98 226.67 C 316.05 226.20 320.02 229.87 319.25 234.04 C 318.75 236.15 316.58 237.92 315.17 239.49 C 315.12 240.64 315.07 241.78 315.01 242.93 C 313.42 242.92 311.82 242.91 310.23 242.89 C 310.08 241.76 309.93 240.63 309.78 239.49 C 308.51 238.08 306.93 236.61 306.11 234.88 C 304.68 231.19 308.06 226.59 311.98 226.67 Z" fill="#015393" />
<path d="M 301.65 231.79 C 300.31 235.12 298.57 233.87 295.68 233.90 C 296.95 230.86 299.02 232.08 301.65 231.79 Z" fill="#015393" />
<path d="M 329.72 232.78 C 328.75 234.71 325.16 233.86 323.37 234.10 C 324.54 231.30 327.57 230.88 329.72 232.78 Z" fill="#015393" />
<path d="M 309.78 247.21 C 311.76 246.72 313.99 246.92 316.00 247.19 C 315.93 247.91 315.81 248.62 315.65 249.32 C 313.37 249.61 310.94 249.50 308.64 249.41 C 309.01 248.67 309.38 247.94 309.78 247.21 Z" fill="#015393" />
<path d="M 212.23 287.82 C 216.06 288.69 219.00 290.87 222.00 293.28 C 220.60 294.87 219.19 296.44 217.77 298.00 C 214.78 296.08 211.67 294.19 208.01 294.00 C 201.71 294.04 195.99 298.66 194.99 304.95 C 193.56 311.78 196.51 319.46 203.76 321.25 C 209.10 322.90 213.22 320.40 217.43 317.45 C 218.94 319.10 220.42 320.77 221.90 322.45 C 221.11 323.15 220.30 323.85 219.49 324.52 C 212.09 330.90 199.59 330.18 192.89 323.10 C 189.00 319.19 186.94 313.45 186.92 307.99 C 187.16 302.35 189.50 296.58 193.62 292.65 C 198.38 287.98 205.79 285.93 212.23 287.82 Z" fill="#015393" />
<path d="M 157.43 288.20 C 166.01 287.63 174.72 288.04 183.32 288.03 C 183.30 290.27 183.28 292.52 183.24 294.76 C 177.19 294.81 171.14 294.80 165.08 294.79 C 165.07 298.00 165.08 301.21 165.07 304.42 C 170.05 304.39 175.04 304.40 180.02 304.41 C 180.04 306.64 180.06 308.87 180.08 311.10 C 175.08 311.10 170.08 311.10 165.08 311.10 C 165.08 314.50 165.08 317.90 165.08 321.30 C 171.14 321.29 177.19 321.29 183.24 321.29 C 183.29 323.56 183.30 325.84 183.31 328.11 C 174.63 328.11 165.95 328.14 157.27 328.10 C 157.38 314.82 157.01 301.46 157.43 288.20 Z" fill="#015393" />
<path d="M 228.94 287.93 C 237.40 287.89 245.87 287.90 254.33 287.92 C 254.32 290.19 254.29 292.46 254.26 294.74 C 248.36 294.78 242.46 294.75 236.57 294.78 C 236.55 298.11 236.56 301.44 236.54 304.78 C 241.44 304.79 246.35 304.78 251.26 304.80 C 251.26 306.90 251.26 309.00 251.26 311.10 C 246.36 311.10 241.46 311.10 236.56 311.10 C 236.55 314.50 236.56 317.90 236.55 321.30 C 242.71 321.29 248.87 321.28 255.03 321.30 C 255.05 323.57 255.06 325.84 255.06 328.11 C 246.35 328.11 237.64 328.11 228.93 328.11 C 228.93 314.72 228.92 301.32 228.94 287.93 Z" fill="#0285d1" />
<path fill-rule="evenodd" d="M 278.06 298.87 C 282.27 299.98 285.16 303.58 285.21 307.97 C 285.43 314.68 285.14 321.40 285.41 328.11 C 283.23 328.11 281.05 328.11 278.87 328.11 C 278.82 327.19 278.77 326.27 278.73 325.35 C 274.67 328.33 270.51 329.85 265.50 328.14 C 259.73 326.32 257.41 319.09 261.40 314.40 C 265.57 309.59 272.91 310.24 278.65 309.78 C 277.98 308.41 277.61 306.60 276.56 305.48 C 272.44 303.19 268.32 305.42 264.55 307.24 C 263.46 306.02 262.40 304.78 261.35 303.52 C 265.96 299.14 271.79 297.06 278.06 298.87 Z M 268.54 315.70 C 271.60 314.62 275.25 314.84 278.47 314.69 C 278.21 316.32 277.99 317.98 277.57 319.57 C 275.73 322.94 270.36 323.82 267.33 321.69 C 265.84 319.60 266.23 316.94 268.54 315.70 Z" fill="#0285d1" />
<path d="M 306.52 298.54 C 309.63 299.08 311.91 300.82 314.38 302.63 C 313.19 303.97 312.00 305.31 310.81 306.65 C 307.91 305.11 305.44 303.35 301.96 303.85 C 300.00 304.07 297.82 305.70 299.05 307.84 C 302.62 310.22 307.51 310.39 311.15 312.84 C 314.34 315.04 315.69 319.42 313.97 322.96 C 312.05 327.89 305.72 329.23 301.01 328.75 C 297.00 328.50 293.84 326.57 290.55 324.48 C 291.67 323.00 292.79 321.53 293.92 320.06 C 297.65 322.02 301.19 324.11 305.53 322.51 C 307.01 321.90 308.70 319.36 306.89 318.17 C 303.48 315.39 297.85 315.66 294.32 312.70 C 290.87 310.06 291.01 303.99 294.20 301.20 C 297.41 298.26 302.41 297.79 306.52 298.54 Z" fill="#0285d1" />
<path d="M 317.58 299.14 C 320.13 299.05 322.67 298.95 325.22 298.85 C 327.76 305.94 330.18 313.07 332.75 320.14 C 335.10 313.03 337.68 306.00 340.04 298.89 C 342.53 298.97 345.02 299.05 347.52 299.12 C 343.70 309.66 339.50 320.05 335.63 330.57 C 334.37 333.79 333.24 337.21 330.37 339.38 C 327.56 341.70 323.45 341.35 320.11 340.67 C 319.62 338.67 320.14 336.36 320.23 334.32 C 322.29 334.33 324.94 335.00 326.65 333.63 C 327.74 332.41 328.49 330.78 329.26 329.33 C 325.21 319.34 321.35 309.25 317.58 299.14 Z" fill="#0285d1" />
</svg>